<?xml version="1.0" encoding="UTF-8" standalone="no"?>
<!DOCTYPE svg PUBLIC "-//W3C//DTD SVG 1.1//EN" "http://www.w3.org/Graphics/SVG/1.1/DTD/svg11.dtd">
<svg width="100%" height="100%" viewBox="0 0 1667 2500" version="1.1" xmlns="http://www.w3.org/2000/svg" xmlns:xlink="http://www.w3.org/1999/xlink" xml:space="preserve" xmlns:serif="http://www.serif.com/" style="fill-rule:evenodd;clip-rule:evenodd;stroke-linejoin:round;stroke-miterlimit:2;">
    <g transform="matrix(1.11827,0,0,1.11827,-96.425,-122.812)">
        <g id="logo">
            <g>
                <g id="path0_fill" transform="matrix(1.10952,0,0,1.10952,303.125,-159.282)">
                    <path d="M238.143,1964.43C369.598,1964.43 476.286,1857.74 476.286,1726.29L476.286,1488.14L238.143,1488.14C106.688,1488.14 0,1594.83 0,1726.29C0,1857.74 106.688,1964.43 238.143,1964.43Z" style="fill:rgb(10,207,131);fill-rule:nonzero;"/>
                </g>
                <g id="path1_fill" transform="matrix(1.10952,0,0,1.10952,303.125,-159.282)">
                    <path d="M0,1250C0,1118.55 106.688,1011.86 238.143,1011.86L476.286,1011.86L476.286,1488.14L238.143,1488.14C106.688,1488.14 0,1381.45 0,1250Z" style="fill:rgb(162,89,255);fill-rule:nonzero;"/>
                </g>
                <g id="path1_fill_1_" transform="matrix(1.10952,0,0,1.10952,303.125,-159.282)">
                    <path d="M0,773.714C0,642.259 106.688,535.571 238.143,535.571L476.286,535.571L476.286,1011.86L238.143,1011.86C106.688,1011.86 0,905.169 0,773.714Z" style="fill:rgb(242,78,30);fill-rule:nonzero;"/>
                </g>
                <g id="path2_fill" transform="matrix(1.10952,0,0,1.10952,303.125,-159.282)">
                    <path d="M476.286,535.571L714.429,535.571C845.883,535.571 952.571,642.259 952.571,773.714C952.571,905.169 845.883,1011.86 714.429,1011.86L476.286,1011.86L476.286,535.571Z" style="fill:rgb(255,114,98);fill-rule:nonzero;"/>
                </g>
                <g id="path3_fill" transform="matrix(1.10952,0,0,1.10952,303.125,-159.282)">
                    <path d="M952.571,1250C952.571,1381.45 845.883,1488.14 714.429,1488.14C582.974,1488.14 476.286,1381.45 476.286,1250C476.286,1118.55 582.974,1011.86 714.429,1011.86C845.883,1011.86 952.571,1118.55 952.571,1250Z" style="fill:rgb(26,188,254);fill-rule:nonzero;"/>
                </g>
            </g>
        </g>
    </g>
</svg>
