<?xml version="1.0" encoding="UTF-8" standalone="no"?>
<!DOCTYPE svg PUBLIC "-//W3C//DTD SVG 1.1//EN" "http://www.w3.org/Graphics/SVG/1.1/DTD/svg11.dtd">
<svg width="100%" height="100%" viewBox="0 0 300 280" version="1.1" xmlns="http://www.w3.org/2000/svg" xmlns:xlink="http://www.w3.org/1999/xlink" xml:space="preserve" xmlns:serif="http://www.serif.com/" style="fill-rule:evenodd;clip-rule:evenodd;stroke-linejoin:round;stroke-miterlimit:2;">
    <g transform="matrix(1,0,0,1,0,10)">
        <path d="M66.54,210.39L67.93,208.45L133.55,83.93L133.69,82.61L104.76,28.27C102.34,23.72 95.51,24.87 94.72,29.96L66.54,210.39Z" style="fill:rgb(250,166,28);fill-rule:nonzero;"/>
        <g>
            <g>
                <path id="path-1" d="M67.36,208.91L68.41,206.86L133.35,83.65L104.49,29.09C102.09,24.59 96,25.73 95.21,30.78L67.36,208.91Z" style="fill:rgb(250,166,29);"/>
            </g>
            <g>
                <g>
                    <path id="path-1_9_" d="M67.36,208.91L68.41,206.86L133.35,83.65L104.49,29.09C102.09,24.59 96,25.73 95.21,30.78L67.36,208.91Z" style="fill:rgb(250,166,28);fill-rule:nonzero;"/>
                </g>
            </g>
        </g>
        <path d="M154.78,123.71L176.32,101.65L154.77,60.52C152.72,56.63 147.01,56.62 144.99,60.52L133.48,82.47L133.48,84.34L154.78,123.71Z" style="fill:rgb(250,166,28);fill-rule:nonzero;"/>
        <g>
            <g>
                <path id="path-3" d="M154.39,122.79L175.33,101.34L154.39,61.47C152.4,57.69 147.57,57.29 145.6,61.08L134.03,83.37L133.68,84.51L154.39,122.79Z" style="fill:rgb(250,165,26);"/>
            </g>
            <g>
                <path id="path-3_1_" d="M154.39,122.79L175.33,101.34L154.39,61.47C152.4,57.69 147.57,57.29 145.6,61.08L134.03,83.37L133.68,84.51L154.39,122.79Z" style="fill:rgb(250,166,28);fill-rule:nonzero;"/>
            </g>
        </g>
        <path d="M66.54,210.39L67.17,209.76L69.45,208.83L153.42,125.17L154.49,122.27L133.54,82.35L66.54,210.39Z" style="fill:rgb(245,130,32);fill-rule:nonzero;"/>
        <path d="M157.47,252.58L233.47,210.2L211.77,76.55C211.09,72.37 205.96,70.72 202.97,73.71L66.54,210.39L142.1,252.58C146.87,255.24 152.69,255.24 157.47,252.58" style="fill:rgb(252,224,105);fill-rule:nonzero;"/>
        <path d="M232.78,209.84L211.24,77.2C210.57,73.05 206.3,71.33 203.33,74.31L67.38,210.13L142.11,251.9C146.85,254.55 152.62,254.55 157.36,251.9L232.78,209.84Z" style="fill:rgb(255,205,49);fill-rule:nonzero;"/>
        <path d="M157.47,251.33C152.69,253.99 146.88,253.99 142.1,251.33L67.15,209.75L66.54,210.39L142.1,252.58C146.88,255.25 152.69,255.25 157.47,252.58L233.47,210.2L233.28,209.05L157.47,251.33Z" style="fill:rgb(238,172,56);fill-rule:nonzero;"/>
    </g>
</svg>
