<?xml version="1.0" encoding="utf-8"?>
<!-- Generator: Adobe Illustrator 19.2.1, SVG Export Plug-In . SVG Version: 6.00 Build 0)  -->
<svg version="1.1" id="layer" xmlns="http://www.w3.org/2000/svg" xmlns:xlink="http://www.w3.org/1999/xlink" x="0px" y="0px"
	 viewBox="0 0 652 652" style="enable-background:new 0 0 652 652;" xml:space="preserve">
<style type="text/css">
	.st0{fill:#00529C;}
</style>
<g>
	<g>
		<polyline class="st0" points="104.6,222.9 577.2,222.7 396.2,175.5 396,75.6 352.3,176.6 		"/>
		<polyline class="st0" points="10.7,332.3 50.4,243.8 81.1,243.8 81.1,313.9 143.9,243.8 175.4,243.8 134.5,332.2 115.8,332.2 
			150.4,256.1 82.2,332.1 61.3,332.1 61.3,258.4 26.2,332.3 		"/>
		<polyline class="st0" points="252.9,243.5 184.4,243.5 144.3,332.1 215,332.1 222,318 169.2,318 181.4,292.5 227.4,292.5 
			233.9,278.5 187.3,278.5 196.8,257.6 246.4,257.6 		"/>
		<polyline class="st0" points="642.9,243.5 574.3,243.5 534.3,332.1 604.9,332.1 612,318 559.2,318 571.4,292.5 617.4,292.5 
			623.9,278.5 577.3,278.5 586.8,257.6 636.4,257.6 		"/>
		<path class="st0" d="M330.1,247.6c-7-4.9-66.4-4.3-66.4-4.3l-40.3,88.8c26.3-1.4,78,9.7,104.3-29.3
			C353.9,263.8,337.1,252.4,330.1,247.6 M318.2,289.3c-14.4,35.5-69.1,27.9-69.1,27.9s26.5-59.3,27.4-59.3
			C301.4,257.9,332.5,253.8,318.2,289.3"/>
		<polyline class="st0" points="363.7,243.2 383.1,243.2 348.5,318.3 398.9,318.3 392.1,332.1 323,332.1 		"/>
		<polyline class="st0" points="439.2,243.5 457.9,243.5 417.5,332.1 399.7,332.1 		"/>
		<polyline class="st0" points="431.9,332.1 472.5,243.5 501.2,243.5 515.8,315.3 549.2,243.5 564.9,243.5 524.8,332.1 498.5,332.1 
			482.5,257.6 447.9,332.1 		"/>
		<path class="st0" d="M386.1,350.3l-99.9,225.3l9.1-225.3C295.3,350.3,335.6,400.1,386.1,350.3"/>
	</g>
</g>
</svg>
