<?xml version="1.0" encoding="UTF-8" standalone="no"?>
<!DOCTYPE svg PUBLIC "-//W3C//DTD SVG 1.1//EN" "http://www.w3.org/Graphics/SVG/1.1/DTD/svg11.dtd">
<svg width="100%" height="100%" viewBox="0 0 100 100" version="1.1" xmlns="http://www.w3.org/2000/svg" xmlns:xlink="http://www.w3.org/1999/xlink" xml:space="preserve" xmlns:serif="http://www.serif.com/" style="fill-rule:evenodd;clip-rule:evenodd;stroke-linejoin:round;stroke-miterlimit:2;">
    <g transform="matrix(1.04849,0,0,1.34945,-10.1219,-38.1944)">
        <g id="Layer1">
            <ellipse cx="57.341" cy="65.356" rx="47.687" ry="37.052" style="fill:rgb(0,121,214);"/>
        </g>
    </g>
    <g transform="matrix(1,0,0,1,-10,-17.5)">
        <path d="M79.1,42.7C79.1,42.7 79,42.7 79.1,42.7C79.1,42.9 79.1,43 79,43.1L79,43.2C79,43.3 78.9,43.5 78.8,43.6L78.8,43.7C77.2,46.4 69.4,48.4 60.1,48.4C50.7,48.4 42.9,46.3 41.4,43.6C41.3,43.5 41.3,43.3 41.2,43.2L41.2,43.1C41.2,42.9 41.1,42.8 41.1,42.6C41.1,39.4 49.6,36.9 60.1,36.9C69.3,36.9 76.9,38.9 78.7,41.5C78.9,41.9 79.1,42.3 79.1,42.7Z" style="fill:white;"/>
        <g>
            <path d="M61.3,76.9C60.2,76.9 59.2,76.5 58.5,75.6C57.8,74.7 57.5,73.5 57.5,72.1C57.5,70.6 57.9,69.4 58.6,68.5C59.3,67.6 60.2,67.2 61.4,67.2C62.6,67.2 63.5,67.6 64.1,68.5C64.8,69.4 65.1,70.6 65.1,72.1C65.1,73.6 64.8,74.8 64.1,75.6C63.4,76.4 62.5,76.9 61.3,76.9Z" style="fill:white;"/>
            <path d="M60,98.2L59.7,98.2C46.7,98.1 36.1,94.3 36.1,89.5L36.1,43.2C36.1,48 46.8,51.9 60,51.9C73.2,51.9 83.9,48 83.9,43.2L83.9,89.5C83.9,94.3 73.2,98.2 60,98.2ZM46.8,67.3C47.2,67 47.7,66.9 48.3,66.9C49.6,66.9 50.8,67.3 51.8,68L51.8,64.8C50.8,64.4 49.6,64.2 48.1,64.2C46.4,64.2 45.1,64.6 44.1,65.4C43.1,66.2 42.6,67.3 42.6,68.7C42.6,70.6 43.7,72.1 46,73.1C47.1,73.6 47.9,74.1 48.2,74.4C48.6,74.7 48.8,75.1 48.8,75.6C48.8,76.1 48.6,76.4 48.2,76.7C47.8,77 47.3,77.1 46.6,77.1C45.2,77.1 43.8,76.6 42.6,75.6L42.6,79C43.6,79.6 44.9,79.8 46.5,79.8C48.3,79.8 49.8,79.4 50.8,78.6C51.8,77.8 52.4,76.7 52.4,75.3C52.4,74.3 52.1,73.4 51.5,72.7C50.9,72 49.9,71.3 48.5,70.7C47.6,70.2 46.9,69.9 46.6,69.6C46.3,69.3 46.1,68.9 46.1,68.4C46.2,67.9 46.4,67.5 46.8,67.3ZM68.7,71.9C68.7,70.4 68.4,69.1 67.8,67.9C67.2,66.7 66.3,65.8 65.2,65.2C64.1,64.6 62.9,64.2 61.5,64.2C60,64.2 58.7,64.5 57.5,65.2C56.4,65.9 55.5,66.8 54.8,68C54.2,69.2 53.8,70.6 53.8,72.2C53.8,73.6 54.1,74.9 54.7,76.1C55.3,77.3 56.1,78.2 57.2,78.8C58.3,79.5 59.5,79.8 60.8,79.9L63.9,83.4L68.3,83.4L63.9,79.3C65.4,78.8 66.5,77.9 67.3,76.5C68.3,75.2 68.7,73.7 68.7,71.9ZM80.1,76.8L74.5,76.8L74.5,64.4L71.1,64.4L71.1,79.6L80.1,79.6L80.1,76.8Z" style="fill:white;"/>
        </g>
    </g>
</svg>
